<mxfile host="Electron" agent="Mozilla/5.0 (Windows NT 10.0; Win64; x64) AppleWebKit/537.36 (KHTML, like Gecko) draw.io/24.7.17 Chrome/128.0.6613.36 Electron/32.0.1 Safari/537.36" version="24.7.17">
  <diagram id="C5RBs43oDa-KdzZeNtuy" name="Page-1">
    <mxGraphModel dx="3412" dy="2467" grid="1" gridSize="10" guides="1" tooltips="1" connect="1" arrows="1" fold="1" page="1" pageScale="1" pageWidth="827" pageHeight="1169" math="0" shadow="0">
      <root>
        <mxCell id="WIyWlLk6GJQsqaUBKTNV-0" />
        <mxCell id="WIyWlLk6GJQsqaUBKTNV-1" parent="WIyWlLk6GJQsqaUBKTNV-0" />
        <mxCell id="iNXzVMeMWfwk78cKGa2O-0" value="" style="shape=folder;fontStyle=1;spacingTop=10;tabWidth=40;tabHeight=14;tabPosition=left;html=1;whiteSpace=wrap;fillColor=#A9C4EB;strokeColor=#FFFFFF;" vertex="1" parent="WIyWlLk6GJQsqaUBKTNV-1">
          <mxGeometry x="10" y="10" width="1070" height="500" as="geometry" />
        </mxCell>
        <mxCell id="iNXzVMeMWfwk78cKGa2O-2" value="&lt;font style=&quot;font-size: 14px;&quot;&gt;Controller&lt;/font&gt;" style="swimlane;fontStyle=1;align=center;verticalAlign=top;childLayout=stackLayout;horizontal=1;startSize=26;horizontalStack=0;resizeParent=1;resizeParentMax=0;resizeLast=0;collapsible=1;marginBottom=0;whiteSpace=wrap;html=1;fillColor=#FFFFFF;strokeColor=#FFFFFF;" vertex="1" parent="WIyWlLk6GJQsqaUBKTNV-1">
          <mxGeometry x="20" y="75" width="160" height="132" as="geometry" />
        </mxCell>
        <mxCell id="iNXzVMeMWfwk78cKGa2O-3" value="&lt;font style=&quot;font-size: 14px;&quot;&gt;+ Config: Configurator&lt;/font&gt;" style="text;strokeColor=#FFFFFF;fillColor=#A9C4EB;align=left;verticalAlign=top;spacingLeft=4;spacingRight=4;overflow=hidden;rotatable=0;points=[[0,0.5],[1,0.5]];portConstraint=eastwest;whiteSpace=wrap;html=1;" vertex="1" parent="iNXzVMeMWfwk78cKGa2O-2">
          <mxGeometry y="26" width="160" height="26" as="geometry" />
        </mxCell>
        <mxCell id="iNXzVMeMWfwk78cKGa2O-5" value="&lt;font style=&quot;font-size: 14px;&quot;&gt;+SaveSimulation(): void&lt;/font&gt;&lt;div&gt;&lt;font size=&quot;3&quot;&gt;+&lt;span style=&quot;background-color: initial;&quot;&gt;StartSimulation(): void&lt;/span&gt;&lt;span style=&quot;background-color: initial;&quot;&gt;&amp;nbsp;&lt;/span&gt;&lt;/font&gt;&lt;/div&gt;&lt;div&gt;&lt;font size=&quot;3&quot;&gt;+StopSimulation(): void&lt;span style=&quot;background-color: initial;&quot;&gt;&lt;br&gt;&lt;/span&gt;&lt;/font&gt;&lt;/div&gt;&lt;div&gt;&lt;font size=&quot;3&quot;&gt;+ConfigSimulation(): void&lt;/font&gt;&lt;/div&gt;" style="text;strokeColor=#FFFFFF;fillColor=#A9C4EB;align=left;verticalAlign=top;spacingLeft=4;spacingRight=4;overflow=hidden;rotatable=0;points=[[0,0.5],[1,0.5]];portConstraint=eastwest;whiteSpace=wrap;html=1;" vertex="1" parent="iNXzVMeMWfwk78cKGa2O-2">
          <mxGeometry y="52" width="160" height="80" as="geometry" />
        </mxCell>
        <mxCell id="iNXzVMeMWfwk78cKGa2O-7" value="&lt;font style=&quot;font-size: 14px;&quot;&gt;Configurator&lt;/font&gt;" style="swimlane;fontStyle=1;align=center;verticalAlign=top;childLayout=stackLayout;horizontal=1;startSize=26;horizontalStack=0;resizeParent=1;resizeParentMax=0;resizeLast=0;collapsible=1;marginBottom=0;whiteSpace=wrap;html=1;strokeColor=#FFFFFF;" vertex="1" parent="WIyWlLk6GJQsqaUBKTNV-1">
          <mxGeometry x="270" y="75" width="200" height="350" as="geometry" />
        </mxCell>
        <mxCell id="iNXzVMeMWfwk78cKGa2O-8" value="&lt;font style=&quot;font-size: 14px;&quot;&gt;-HoursNoon: OpenHourConfig&lt;/font&gt;&lt;div&gt;&lt;font size=&quot;3&quot;&gt;-HoursNight: OpenHourConfig&lt;/font&gt;&lt;/div&gt;&lt;div&gt;&lt;font size=&quot;3&quot;&gt;-FinishedDishCounter: CounterDirt&lt;/font&gt;&lt;/div&gt;&lt;div&gt;&lt;font size=&quot;3&quot;&gt;-TimeCleanTable: float&lt;/font&gt;&lt;/div&gt;&lt;div&gt;&lt;font size=&quot;3&quot;&gt;-TimePrepareTable: float&lt;/font&gt;&lt;/div&gt;&lt;div&gt;&lt;font size=&quot;3&quot;&gt;-PayementWaitTime: float&lt;/font&gt;&lt;/div&gt;&lt;div&gt;&lt;font size=&quot;3&quot;&gt;-MaxDishCounterCapacity: int&lt;/font&gt;&lt;/div&gt;&lt;div&gt;&lt;br&gt;&lt;/div&gt;" style="text;strokeColor=#FFFFFF;fillColor=none;align=left;verticalAlign=top;spacingLeft=4;spacingRight=4;overflow=hidden;rotatable=0;points=[[0,0.5],[1,0.5]];portConstraint=eastwest;whiteSpace=wrap;html=1;" vertex="1" parent="iNXzVMeMWfwk78cKGa2O-7">
          <mxGeometry y="26" width="200" height="324" as="geometry" />
        </mxCell>
        <mxCell id="iNXzVMeMWfwk78cKGa2O-11" value="&lt;font style=&quot;font-size: 14px;&quot;&gt;OpenHourconfig&lt;/font&gt;" style="swimlane;fontStyle=1;align=center;verticalAlign=top;childLayout=stackLayout;horizontal=1;startSize=26;horizontalStack=0;resizeParent=1;resizeParentMax=0;resizeLast=0;collapsible=1;marginBottom=0;whiteSpace=wrap;html=1;strokeColor=#FFFFFF;" vertex="1" parent="WIyWlLk6GJQsqaUBKTNV-1">
          <mxGeometry x="580" y="65" width="170" height="110" as="geometry" />
        </mxCell>
        <mxCell id="iNXzVMeMWfwk78cKGa2O-17" value="&lt;font style=&quot;font-size: 14px;&quot;&gt;-OpenNoon : int&lt;/font&gt;&lt;div&gt;&lt;font size=&quot;3&quot;&gt;-CloseNoon : int&lt;br&gt;-OpenPublic : int&lt;br&gt;-ClosePublic : int&lt;/font&gt;&lt;/div&gt;" style="text;whiteSpace=wrap;html=1;strokeColor=#FFFFFF;" vertex="1" parent="iNXzVMeMWfwk78cKGa2O-11">
          <mxGeometry y="26" width="170" height="84" as="geometry" />
        </mxCell>
        <mxCell id="iNXzVMeMWfwk78cKGa2O-18" value="&lt;font style=&quot;font-size: 14px;&quot;&gt;Client&lt;/font&gt;" style="swimlane;fontStyle=1;align=center;verticalAlign=top;childLayout=stackLayout;horizontal=1;startSize=26;horizontalStack=0;resizeParent=1;resizeParentMax=0;resizeLast=0;collapsible=1;marginBottom=0;whiteSpace=wrap;html=1;strokeColor=#FFFFFF;" vertex="1" parent="WIyWlLk6GJQsqaUBKTNV-1">
          <mxGeometry x="580" y="190" width="180" height="190" as="geometry" />
        </mxCell>
        <mxCell id="iNXzVMeMWfwk78cKGa2O-23" value="&lt;font style=&quot;font-size: 14px;&quot;&gt;-WaitTimeTakeOrder : float&lt;br&gt;-NbrClients : int&amp;nbsp;&lt;br&gt;-TimeTakeOrder : float&lt;br&gt;-StayTimeHurry : float&lt;br&gt;-StayTime : float&lt;br&gt;-TimeToEat : EatTime&lt;br&gt;-PrctClientHurry : float&lt;/font&gt;" style="text;whiteSpace=wrap;html=1;strokeColor=#FFFFFF;" vertex="1" parent="iNXzVMeMWfwk78cKGa2O-18">
          <mxGeometry y="26" width="180" height="164" as="geometry" />
        </mxCell>
        <mxCell id="iNXzVMeMWfwk78cKGa2O-24" value="&lt;font style=&quot;font-size: 14px;&quot;&gt;CounterDirt&lt;/font&gt;" style="swimlane;fontStyle=1;align=center;verticalAlign=top;childLayout=stackLayout;horizontal=1;startSize=26;horizontalStack=0;resizeParent=1;resizeParentMax=0;resizeLast=0;collapsible=1;marginBottom=0;whiteSpace=wrap;html=1;strokeColor=#FFFFFF;" vertex="1" parent="WIyWlLk6GJQsqaUBKTNV-1">
          <mxGeometry x="580" y="400" width="180" height="90" as="geometry" />
        </mxCell>
        <mxCell id="iNXzVMeMWfwk78cKGa2O-28" value="&lt;font style=&quot;font-size: 14px;&quot;&gt;-PlateCapacity : int&lt;br&gt;-SilverwareCapacity: int&lt;br&gt;-GlassCapacity : int&lt;/font&gt;" style="text;whiteSpace=wrap;html=1;strokeColor=#FFFFFF;" vertex="1" parent="iNXzVMeMWfwk78cKGa2O-24">
          <mxGeometry y="26" width="180" height="64" as="geometry" />
        </mxCell>
        <mxCell id="iNXzVMeMWfwk78cKGa2O-29" value="&lt;font style=&quot;font-size: 14px;&quot;&gt;Eattime&lt;/font&gt;" style="swimlane;fontStyle=1;align=center;verticalAlign=top;childLayout=stackLayout;horizontal=1;startSize=26;horizontalStack=0;resizeParent=1;resizeParentMax=0;resizeLast=0;collapsible=1;marginBottom=0;whiteSpace=wrap;html=1;strokeColor=#FFFFFF;" vertex="1" parent="WIyWlLk6GJQsqaUBKTNV-1">
          <mxGeometry x="870" y="230" width="190" height="90" as="geometry" />
        </mxCell>
        <mxCell id="iNXzVMeMWfwk78cKGa2O-33" value="&lt;font style=&quot;font-size: 14px;&quot;&gt;-Entry: float&lt;/font&gt;&lt;div&gt;&lt;font size=&quot;3&quot;&gt;-Dish: float&lt;br&gt;-Dessert: float&lt;/font&gt;&lt;/div&gt;" style="text;whiteSpace=wrap;html=1;strokeColor=#FFFFFF;" vertex="1" parent="iNXzVMeMWfwk78cKGa2O-29">
          <mxGeometry y="26" width="190" height="64" as="geometry" />
        </mxCell>
        <mxCell id="iNXzVMeMWfwk78cKGa2O-35" value="" style="endArrow=diamondThin;endFill=0;endSize=24;html=1;rounded=0;entryX=1;entryY=0.25;entryDx=0;entryDy=0;strokeColor=#FFFFFF;" edge="1" parent="WIyWlLk6GJQsqaUBKTNV-1" target="iNXzVMeMWfwk78cKGa2O-2">
          <mxGeometry width="160" relative="1" as="geometry">
            <mxPoint x="270" y="108" as="sourcePoint" />
            <mxPoint x="600" y="160" as="targetPoint" />
          </mxGeometry>
        </mxCell>
        <mxCell id="iNXzVMeMWfwk78cKGa2O-36" value="" style="endArrow=diamondThin;endFill=0;endSize=24;html=1;rounded=0;entryX=1.005;entryY=0.01;entryDx=0;entryDy=0;entryPerimeter=0;strokeColor=#FFFFFF;" edge="1" parent="WIyWlLk6GJQsqaUBKTNV-1" target="iNXzVMeMWfwk78cKGa2O-8">
          <mxGeometry width="160" relative="1" as="geometry">
            <mxPoint x="580" y="104" as="sourcePoint" />
            <mxPoint x="600" y="260" as="targetPoint" />
          </mxGeometry>
        </mxCell>
        <mxCell id="iNXzVMeMWfwk78cKGa2O-37" value="" style="endArrow=diamondThin;endFill=0;endSize=24;html=1;rounded=0;entryX=0.983;entryY=0.472;entryDx=0;entryDy=0;exitX=0;exitY=0.25;exitDx=0;exitDy=0;entryPerimeter=0;strokeColor=#FFFFFF;" edge="1" parent="WIyWlLk6GJQsqaUBKTNV-1" source="iNXzVMeMWfwk78cKGa2O-23" target="iNXzVMeMWfwk78cKGa2O-8">
          <mxGeometry width="160" relative="1" as="geometry">
            <mxPoint x="440" y="320" as="sourcePoint" />
            <mxPoint x="600" y="320" as="targetPoint" />
          </mxGeometry>
        </mxCell>
        <mxCell id="iNXzVMeMWfwk78cKGa2O-38" value="" style="endArrow=diamondThin;endFill=0;endSize=24;html=1;rounded=0;exitX=0;exitY=0;exitDx=0;exitDy=0;entryX=0.993;entryY=0.987;entryDx=0;entryDy=0;entryPerimeter=0;strokeColor=#FFFFFF;" edge="1" parent="WIyWlLk6GJQsqaUBKTNV-1" source="iNXzVMeMWfwk78cKGa2O-28" target="iNXzVMeMWfwk78cKGa2O-8">
          <mxGeometry width="160" relative="1" as="geometry">
            <mxPoint x="440" y="420" as="sourcePoint" />
            <mxPoint x="600" y="420" as="targetPoint" />
          </mxGeometry>
        </mxCell>
        <mxCell id="iNXzVMeMWfwk78cKGa2O-39" value="" style="endArrow=diamondThin;endFill=0;endSize=24;html=1;rounded=0;entryX=1;entryY=0.25;entryDx=0;entryDy=0;exitX=0;exitY=0;exitDx=0;exitDy=0;strokeColor=#FFFFFF;" edge="1" parent="WIyWlLk6GJQsqaUBKTNV-1" source="iNXzVMeMWfwk78cKGa2O-33" target="iNXzVMeMWfwk78cKGa2O-23">
          <mxGeometry width="160" relative="1" as="geometry">
            <mxPoint x="810" y="350" as="sourcePoint" />
            <mxPoint x="970" y="350" as="targetPoint" />
          </mxGeometry>
        </mxCell>
        <mxCell id="iNXzVMeMWfwk78cKGa2O-42" value="" style="shape=folder;fontStyle=1;spacingTop=10;tabWidth=40;tabHeight=14;tabPosition=left;html=1;whiteSpace=wrap;fillColor=#A9C4EB;strokeColor=#FFFFFF;" vertex="1" parent="WIyWlLk6GJQsqaUBKTNV-1">
          <mxGeometry x="1215" y="400" width="370" height="140" as="geometry" />
        </mxCell>
        <mxCell id="iNXzVMeMWfwk78cKGa2O-44" value="&lt;font style=&quot;font-size: 14px;&quot;&gt;view&lt;/font&gt;" style="text;align=center;fontStyle=1;verticalAlign=middle;spacingLeft=3;spacingRight=3;strokeColor=none;rotatable=0;points=[[0,0.5],[1,0.5]];portConstraint=eastwest;html=1;" vertex="1" parent="WIyWlLk6GJQsqaUBKTNV-1">
          <mxGeometry x="1360" y="420" width="80" height="26" as="geometry" />
        </mxCell>
        <mxCell id="iNXzVMeMWfwk78cKGa2O-48" value="&lt;font style=&quot;font-size: 14px;&quot;&gt;View&lt;/font&gt;" style="swimlane;fontStyle=1;align=center;verticalAlign=top;childLayout=stackLayout;horizontal=1;startSize=26;horizontalStack=0;resizeParent=1;resizeParentMax=0;resizeLast=0;collapsible=1;marginBottom=0;whiteSpace=wrap;html=1;strokeColor=#FFFFFF;" vertex="1" parent="WIyWlLk6GJQsqaUBKTNV-1">
          <mxGeometry x="1230" y="470" width="160" height="52" as="geometry" />
        </mxCell>
        <mxCell id="iNXzVMeMWfwk78cKGa2O-52" value="&lt;font style=&quot;font-size: 14px;&quot;&gt;WindowsForm&lt;/font&gt;" style="swimlane;fontStyle=1;align=center;verticalAlign=top;childLayout=stackLayout;horizontal=1;startSize=26;horizontalStack=0;resizeParent=1;resizeParentMax=0;resizeLast=0;collapsible=1;marginBottom=0;whiteSpace=wrap;html=1;strokeColor=#FFFFFF;" vertex="1" parent="WIyWlLk6GJQsqaUBKTNV-1">
          <mxGeometry x="1420" y="470" width="140" height="52" as="geometry" />
        </mxCell>
        <mxCell id="iNXzVMeMWfwk78cKGa2O-53" value="&lt;div style=&quot;text-align: center;&quot;&gt;&lt;span style=&quot;background-color: initial; text-wrap: nowrap;&quot;&gt;&lt;b style=&quot;&quot;&gt;&lt;font style=&quot;font-size: 14px;&quot;&gt;controller&lt;/font&gt;&lt;/b&gt;&lt;/span&gt;&lt;/div&gt;" style="text;whiteSpace=wrap;html=1;" vertex="1" parent="WIyWlLk6GJQsqaUBKTNV-1">
          <mxGeometry x="500" y="25" width="70" height="50" as="geometry" />
        </mxCell>
        <mxCell id="iNXzVMeMWfwk78cKGa2O-54" value="" style="shape=folder;fontStyle=1;spacingTop=10;tabWidth=40;tabHeight=14;tabPosition=left;html=1;whiteSpace=wrap;fillColor=#A9C4EB;strokeColor=#FFFFFF;" vertex="1" parent="WIyWlLk6GJQsqaUBKTNV-1">
          <mxGeometry x="1130" y="120" width="590" height="260" as="geometry" />
        </mxCell>
        <mxCell id="iNXzVMeMWfwk78cKGa2O-55" value="&lt;b&gt;&lt;font style=&quot;font-size: 14px;&quot;&gt;Interfaces&lt;/font&gt;&lt;/b&gt;" style="text;html=1;align=center;verticalAlign=middle;whiteSpace=wrap;rounded=0;" vertex="1" parent="WIyWlLk6GJQsqaUBKTNV-1">
          <mxGeometry x="1400" y="140" width="60" height="30" as="geometry" />
        </mxCell>
        <mxCell id="iNXzVMeMWfwk78cKGa2O-56" value="&lt;font style=&quot;font-size: 14px;&quot;&gt;IView&lt;/font&gt;" style="swimlane;fontStyle=1;align=center;verticalAlign=top;childLayout=stackLayout;horizontal=1;startSize=26;horizontalStack=0;resizeParent=1;resizeParentMax=0;resizeLast=0;collapsible=1;marginBottom=0;whiteSpace=wrap;html=1;strokeColor=#FFFFFF;" vertex="1" parent="WIyWlLk6GJQsqaUBKTNV-1">
          <mxGeometry x="1170" y="230" width="160" height="110" as="geometry" />
        </mxCell>
        <mxCell id="iNXzVMeMWfwk78cKGa2O-57" value="&lt;font style=&quot;font-size: 14px;&quot;&gt;-Simulation: IRestaurant&lt;/font&gt;&lt;div&gt;&lt;font size=&quot;3&quot;&gt;-Config: IController&lt;/font&gt;&lt;/div&gt;" style="text;strokeColor=none;fillColor=none;align=left;verticalAlign=top;spacingLeft=4;spacingRight=4;overflow=hidden;rotatable=0;points=[[0,0.5],[1,0.5]];portConstraint=eastwest;whiteSpace=wrap;html=1;" vertex="1" parent="iNXzVMeMWfwk78cKGa2O-56">
          <mxGeometry y="26" width="160" height="84" as="geometry" />
        </mxCell>
        <mxCell id="iNXzVMeMWfwk78cKGa2O-60" value="&lt;font style=&quot;font-size: 14px;&quot;&gt;IController&lt;/font&gt;" style="swimlane;fontStyle=1;align=center;verticalAlign=top;childLayout=stackLayout;horizontal=1;startSize=26;horizontalStack=0;resizeParent=1;resizeParentMax=0;resizeLast=0;collapsible=1;marginBottom=0;whiteSpace=wrap;html=1;strokeColor=#FFFFFF;" vertex="1" parent="WIyWlLk6GJQsqaUBKTNV-1">
          <mxGeometry x="1360" y="290" width="160" height="66" as="geometry" />
        </mxCell>
        <mxCell id="iNXzVMeMWfwk78cKGa2O-71" value="&lt;font style=&quot;font-size: 14px;&quot;&gt;-Simulation: IRestaurant&lt;/font&gt;" style="text;whiteSpace=wrap;html=1;" vertex="1" parent="iNXzVMeMWfwk78cKGa2O-60">
          <mxGeometry y="26" width="160" height="40" as="geometry" />
        </mxCell>
        <mxCell id="iNXzVMeMWfwk78cKGa2O-64" value="&lt;font style=&quot;font-size: 14px;&quot;&gt;IRestaurant&lt;/font&gt;" style="swimlane;fontStyle=1;align=center;verticalAlign=top;childLayout=stackLayout;horizontal=1;startSize=26;horizontalStack=0;resizeParent=1;resizeParentMax=0;resizeLast=0;collapsible=1;marginBottom=0;whiteSpace=wrap;html=1;strokeColor=#FFFFFF;" vertex="1" parent="WIyWlLk6GJQsqaUBKTNV-1">
          <mxGeometry x="1540" y="160" width="160" height="200" as="geometry" />
        </mxCell>
        <mxCell id="iNXzVMeMWfwk78cKGa2O-68" value="&lt;font style=&quot;font-size: 14px;&quot;&gt;-room: Room&lt;br&gt;-Background: string&lt;br&gt;-Configuration: IController&lt;br&gt;-Staff: StaffManager&lt;br&gt;-Clients: ClientPool&lt;/font&gt;" style="text;whiteSpace=wrap;html=1;" vertex="1" parent="iNXzVMeMWfwk78cKGa2O-64">
          <mxGeometry y="26" width="160" height="104" as="geometry" />
        </mxCell>
        <mxCell id="iNXzVMeMWfwk78cKGa2O-66" value="" style="line;strokeWidth=1;fillColor=none;align=left;verticalAlign=middle;spacingTop=-1;spacingLeft=3;spacingRight=3;rotatable=0;labelPosition=right;points=[];portConstraint=eastwest;strokeColor=inherit;" vertex="1" parent="iNXzVMeMWfwk78cKGa2O-64">
          <mxGeometry y="130" width="160" height="8" as="geometry" />
        </mxCell>
        <mxCell id="iNXzVMeMWfwk78cKGa2O-70" value="&lt;font style=&quot;font-size: 14px;&quot;&gt;+Start()&lt;br&gt;+Break()&lt;br&gt;+Stop()&lt;/font&gt;" style="text;whiteSpace=wrap;html=1;" vertex="1" parent="iNXzVMeMWfwk78cKGa2O-64">
          <mxGeometry y="138" width="160" height="62" as="geometry" />
        </mxCell>
        <mxCell id="iNXzVMeMWfwk78cKGa2O-81" value="" style="endArrow=block;dashed=1;endFill=0;endSize=12;html=1;rounded=0;exitX=0.788;exitY=1.048;exitDx=0;exitDy=0;exitPerimeter=0;entryX=0.413;entryY=0.038;entryDx=0;entryDy=0;entryPerimeter=0;" edge="1" parent="WIyWlLk6GJQsqaUBKTNV-1" source="iNXzVMeMWfwk78cKGa2O-57" target="iNXzVMeMWfwk78cKGa2O-48">
          <mxGeometry width="160" relative="1" as="geometry">
            <mxPoint x="1270" y="390" as="sourcePoint" />
            <mxPoint x="1430" y="390" as="targetPoint" />
          </mxGeometry>
        </mxCell>
        <mxCell id="iNXzVMeMWfwk78cKGa2O-85" value="" style="endArrow=none;dashed=1;html=1;dashPattern=1 3;strokeWidth=2;rounded=0;shadow=1;" edge="1" parent="WIyWlLk6GJQsqaUBKTNV-1">
          <mxGeometry width="50" height="50" relative="1" as="geometry">
            <mxPoint x="110" y="75" as="sourcePoint" />
            <mxPoint x="110" y="-40" as="targetPoint" />
          </mxGeometry>
        </mxCell>
        <mxCell id="iNXzVMeMWfwk78cKGa2O-86" value="" style="endArrow=none;dashed=1;html=1;dashPattern=1 3;strokeWidth=2;rounded=0;shadow=1;" edge="1" parent="WIyWlLk6GJQsqaUBKTNV-1">
          <mxGeometry width="50" height="50" relative="1" as="geometry">
            <mxPoint x="110" y="-40" as="sourcePoint" />
            <mxPoint x="1380" y="-40" as="targetPoint" />
          </mxGeometry>
        </mxCell>
        <mxCell id="iNXzVMeMWfwk78cKGa2O-88" value="" style="endArrow=block;dashed=1;endFill=0;endSize=12;html=1;rounded=0;entryX=0.125;entryY=0;entryDx=0;entryDy=0;entryPerimeter=0;" edge="1" parent="WIyWlLk6GJQsqaUBKTNV-1" target="iNXzVMeMWfwk78cKGa2O-60">
          <mxGeometry width="160" relative="1" as="geometry">
            <mxPoint x="1380" y="-40" as="sourcePoint" />
            <mxPoint x="1540" y="-40" as="targetPoint" />
          </mxGeometry>
        </mxCell>
        <mxCell id="iNXzVMeMWfwk78cKGa2O-89" value="" style="shape=folder;fontStyle=1;spacingTop=10;tabWidth=40;tabHeight=14;tabPosition=left;html=1;whiteSpace=wrap;fillColor=#A9C4EB;strokeColor=#FFFFFF;" vertex="1" parent="WIyWlLk6GJQsqaUBKTNV-1">
          <mxGeometry x="1120" y="-240" width="600" height="190" as="geometry" />
        </mxCell>
        <mxCell id="iNXzVMeMWfwk78cKGa2O-90" value="&lt;b&gt;&lt;font style=&quot;font-size: 14px;&quot;&gt;Main&lt;/font&gt;&lt;/b&gt;" style="text;html=1;align=center;verticalAlign=middle;whiteSpace=wrap;rounded=0;" vertex="1" parent="WIyWlLk6GJQsqaUBKTNV-1">
          <mxGeometry x="1380" y="-220" width="60" height="30" as="geometry" />
        </mxCell>
        <mxCell id="iNXzVMeMWfwk78cKGa2O-95" value="Classname" style="swimlane;fontStyle=1;align=center;verticalAlign=top;childLayout=stackLayout;horizontal=1;startSize=26;horizontalStack=0;resizeParent=1;resizeParentMax=0;resizeLast=0;collapsible=1;marginBottom=0;whiteSpace=wrap;html=1;strokeColor=#FFFFFF;" vertex="1" parent="WIyWlLk6GJQsqaUBKTNV-1">
          <mxGeometry x="1180" y="-160" width="470" height="52" as="geometry" />
        </mxCell>
        <mxCell id="iNXzVMeMWfwk78cKGa2O-96" value="&lt;font style=&quot;font-size: 14px;&quot;&gt;+Main()&lt;/font&gt;" style="text;strokeColor=none;fillColor=none;align=left;verticalAlign=top;spacingLeft=4;spacingRight=4;overflow=hidden;rotatable=0;points=[[0,0.5],[1,0.5]];portConstraint=eastwest;whiteSpace=wrap;html=1;" vertex="1" parent="iNXzVMeMWfwk78cKGa2O-95">
          <mxGeometry y="26" width="470" height="26" as="geometry" />
        </mxCell>
        <mxCell id="iNXzVMeMWfwk78cKGa2O-99" value="&lt;font style=&quot;font-size: 14px;&quot;&gt;Use&lt;/font&gt;" style="endArrow=open;endSize=12;dashed=1;html=1;rounded=0;exitX=0.032;exitY=0.885;exitDx=0;exitDy=0;exitPerimeter=0;" edge="1" parent="WIyWlLk6GJQsqaUBKTNV-1" source="iNXzVMeMWfwk78cKGa2O-96">
          <mxGeometry width="160" relative="1" as="geometry">
            <mxPoint x="1190" y="-100" as="sourcePoint" />
            <mxPoint x="1190" y="230" as="targetPoint" />
          </mxGeometry>
        </mxCell>
        <mxCell id="iNXzVMeMWfwk78cKGa2O-100" value="&lt;font style=&quot;font-size: 14px;&quot;&gt;Use&lt;/font&gt;" style="endArrow=open;endSize=12;dashed=1;html=1;rounded=0;entryX=0.75;entryY=0;entryDx=0;entryDy=0;exitX=0.638;exitY=0.923;exitDx=0;exitDy=0;exitPerimeter=0;" edge="1" parent="WIyWlLk6GJQsqaUBKTNV-1" source="iNXzVMeMWfwk78cKGa2O-96" target="iNXzVMeMWfwk78cKGa2O-60">
          <mxGeometry width="160" relative="1" as="geometry">
            <mxPoint x="1480" y="-90" as="sourcePoint" />
            <mxPoint x="1630" y="-108" as="targetPoint" />
          </mxGeometry>
        </mxCell>
        <mxCell id="iNXzVMeMWfwk78cKGa2O-101" value="&lt;font style=&quot;font-size: 14px;&quot;&gt;Use&lt;/font&gt;" style="endArrow=open;endSize=12;dashed=1;html=1;rounded=0;entryX=0.5;entryY=0;entryDx=0;entryDy=0;exitX=0.93;exitY=0.962;exitDx=0;exitDy=0;exitPerimeter=0;" edge="1" parent="WIyWlLk6GJQsqaUBKTNV-1" source="iNXzVMeMWfwk78cKGa2O-96" target="iNXzVMeMWfwk78cKGa2O-64">
          <mxGeometry width="160" relative="1" as="geometry">
            <mxPoint x="1620" y="-100" as="sourcePoint" />
            <mxPoint x="1780" y="-100" as="targetPoint" />
          </mxGeometry>
        </mxCell>
        <mxCell id="iNXzVMeMWfwk78cKGa2O-102" value="" style="shape=folder;fontStyle=1;spacingTop=10;tabWidth=40;tabHeight=14;tabPosition=left;html=1;whiteSpace=wrap;fillColor=#A9C4EB;strokeColor=#FFFFFF;" vertex="1" parent="WIyWlLk6GJQsqaUBKTNV-1">
          <mxGeometry x="-210" y="610" width="2350" height="1245" as="geometry" />
        </mxCell>
        <mxCell id="iNXzVMeMWfwk78cKGa2O-103" value="&lt;font style=&quot;font-size: 14px;&quot;&gt;&lt;b&gt;Model&lt;/b&gt;&lt;/font&gt;" style="text;html=1;align=center;verticalAlign=middle;whiteSpace=wrap;rounded=0;" vertex="1" parent="WIyWlLk6GJQsqaUBKTNV-1">
          <mxGeometry x="910" y="633" width="60" height="30" as="geometry" />
        </mxCell>
        <mxCell id="iNXzVMeMWfwk78cKGa2O-104" value="&lt;font style=&quot;font-size: 14px;&quot;&gt;FactoryStaff&lt;/font&gt;" style="swimlane;fontStyle=1;align=center;verticalAlign=top;childLayout=stackLayout;horizontal=1;startSize=20;horizontalStack=0;resizeParent=1;resizeParentMax=0;resizeLast=0;collapsible=1;marginBottom=0;whiteSpace=wrap;html=1;strokeColor=#FFFFFF;" vertex="1" parent="WIyWlLk6GJQsqaUBKTNV-1">
          <mxGeometry x="110" y="680" width="160" height="46" as="geometry" />
        </mxCell>
        <mxCell id="iNXzVMeMWfwk78cKGa2O-105" value="&lt;font style=&quot;font-size: 14px;&quot;&gt;+CreateStaff()&lt;/font&gt;" style="text;strokeColor=none;fillColor=none;align=left;verticalAlign=top;spacingLeft=4;spacingRight=4;overflow=hidden;rotatable=0;points=[[0,0.5],[1,0.5]];portConstraint=eastwest;whiteSpace=wrap;html=1;" vertex="1" parent="iNXzVMeMWfwk78cKGa2O-104">
          <mxGeometry y="20" width="160" height="26" as="geometry" />
        </mxCell>
        <mxCell id="iNXzVMeMWfwk78cKGa2O-108" value="&lt;font style=&quot;font-size: 14px;&quot;&gt;FactoryRoomMaster&lt;/font&gt;" style="swimlane;fontStyle=1;align=center;verticalAlign=top;childLayout=stackLayout;horizontal=1;startSize=26;horizontalStack=0;resizeParent=1;resizeParentMax=0;resizeLast=0;collapsible=1;marginBottom=0;whiteSpace=wrap;html=1;strokeColor=#FFFFFF;" vertex="1" parent="WIyWlLk6GJQsqaUBKTNV-1">
          <mxGeometry x="50" y="820" width="160" height="50" as="geometry" />
        </mxCell>
        <mxCell id="iNXzVMeMWfwk78cKGa2O-112" value="&lt;font style=&quot;font-size: 14px;&quot;&gt;FactoryRankChief&lt;/font&gt;" style="swimlane;fontStyle=1;align=center;verticalAlign=top;childLayout=stackLayout;horizontal=1;startSize=26;horizontalStack=0;resizeParent=1;resizeParentMax=0;resizeLast=0;collapsible=1;marginBottom=0;whiteSpace=wrap;html=1;strokeColor=#FFFFFF;" vertex="1" parent="WIyWlLk6GJQsqaUBKTNV-1">
          <mxGeometry x="254" y="820" width="160" height="52" as="geometry" />
        </mxCell>
        <mxCell id="iNXzVMeMWfwk78cKGa2O-116" value="&lt;font style=&quot;font-size: 14px;&quot;&gt;FactoryServer&lt;/font&gt;" style="swimlane;fontStyle=1;align=center;verticalAlign=top;childLayout=stackLayout;horizontal=1;startSize=26;horizontalStack=0;resizeParent=1;resizeParentMax=0;resizeLast=0;collapsible=1;marginBottom=0;whiteSpace=wrap;html=1;strokeColor=#FFFFFF;" vertex="1" parent="WIyWlLk6GJQsqaUBKTNV-1">
          <mxGeometry x="360" y="730" width="160" height="50" as="geometry" />
        </mxCell>
        <mxCell id="iNXzVMeMWfwk78cKGa2O-120" value="&lt;font style=&quot;font-size: 14px;&quot;&gt;Roommaster&lt;/font&gt;" style="swimlane;fontStyle=1;align=center;verticalAlign=top;childLayout=stackLayout;horizontal=1;startSize=26;horizontalStack=0;resizeParent=1;resizeParentMax=0;resizeLast=0;collapsible=1;marginBottom=0;whiteSpace=wrap;html=1;strokeColor=#FFFFFF;" vertex="1" parent="WIyWlLk6GJQsqaUBKTNV-1">
          <mxGeometry x="-200" y="992" width="270" height="150" as="geometry" />
        </mxCell>
        <mxCell id="iNXzVMeMWfwk78cKGa2O-121" value="&lt;font style=&quot;font-size: 14px;&quot;&gt;-Sprite: String&lt;/font&gt;" style="text;strokeColor=none;fillColor=none;align=left;verticalAlign=top;spacingLeft=4;spacingRight=4;overflow=hidden;rotatable=0;points=[[0,0.5],[1,0.5]];portConstraint=eastwest;whiteSpace=wrap;html=1;" vertex="1" parent="iNXzVMeMWfwk78cKGa2O-120">
          <mxGeometry y="26" width="270" height="26" as="geometry" />
        </mxCell>
        <mxCell id="iNXzVMeMWfwk78cKGa2O-122" value="" style="line;strokeWidth=1;fillColor=none;align=left;verticalAlign=middle;spacingTop=-1;spacingLeft=3;spacingRight=3;rotatable=0;labelPosition=right;points=[];portConstraint=eastwest;strokeColor=inherit;" vertex="1" parent="iNXzVMeMWfwk78cKGa2O-120">
          <mxGeometry y="52" width="270" height="8" as="geometry" />
        </mxCell>
        <mxCell id="iNXzVMeMWfwk78cKGa2O-172" value="&lt;font style=&quot;font-size: 14px;&quot;&gt;CheckReservation(group : Client) : boolean&lt;br&gt;AssignTable(groupClient : ClientGroup): void&lt;/font&gt;" style="text;whiteSpace=wrap;html=1;" vertex="1" parent="iNXzVMeMWfwk78cKGa2O-120">
          <mxGeometry y="60" width="270" height="90" as="geometry" />
        </mxCell>
        <mxCell id="iNXzVMeMWfwk78cKGa2O-124" value="&lt;font style=&quot;font-size: 14px;&quot;&gt;Rankchief&lt;/font&gt;" style="swimlane;fontStyle=1;align=center;verticalAlign=top;childLayout=stackLayout;horizontal=1;startSize=26;horizontalStack=0;resizeParent=1;resizeParentMax=0;resizeLast=0;collapsible=1;marginBottom=0;whiteSpace=wrap;html=1;strokeColor=#FFFFFF;" vertex="1" parent="WIyWlLk6GJQsqaUBKTNV-1">
          <mxGeometry x="10" y="1180" width="270" height="180" as="geometry" />
        </mxCell>
        <mxCell id="iNXzVMeMWfwk78cKGa2O-143" value="&lt;font style=&quot;font-size: 14px;&quot;&gt;-myCarre: Carre&lt;br&gt;-Sprite: string&lt;/font&gt;" style="text;whiteSpace=wrap;html=1;" vertex="1" parent="iNXzVMeMWfwk78cKGa2O-124">
          <mxGeometry y="26" width="270" height="44" as="geometry" />
        </mxCell>
        <mxCell id="iNXzVMeMWfwk78cKGa2O-126" value="" style="line;strokeWidth=1;fillColor=none;align=left;verticalAlign=middle;spacingTop=-1;spacingLeft=3;spacingRight=3;rotatable=0;labelPosition=right;points=[];portConstraint=eastwest;strokeColor=inherit;" vertex="1" parent="iNXzVMeMWfwk78cKGa2O-124">
          <mxGeometry y="70" width="270" height="8" as="geometry" />
        </mxCell>
        <mxCell id="iNXzVMeMWfwk78cKGa2O-144" value="&lt;font style=&quot;font-size: 14px;&quot;&gt;+PrepareTable(TableToPrep: Table): void&lt;br&gt;+ClearTable(TableToClear:Table): void&lt;br&gt;+TakeOrder(clients: ClientGroup):&amp;nbsp; void&lt;/font&gt;" style="text;whiteSpace=wrap;html=1;" vertex="1" parent="iNXzVMeMWfwk78cKGa2O-124">
          <mxGeometry y="78" width="270" height="102" as="geometry" />
        </mxCell>
        <mxCell id="iNXzVMeMWfwk78cKGa2O-128" value="&lt;font style=&quot;font-size: 14px;&quot;&gt;Server&lt;/font&gt;" style="swimlane;fontStyle=1;align=center;verticalAlign=top;childLayout=stackLayout;horizontal=1;startSize=26;horizontalStack=0;resizeParent=1;resizeParentMax=0;resizeLast=0;collapsible=1;marginBottom=0;whiteSpace=wrap;html=1;strokeColor=#FFFFFF;" vertex="1" parent="WIyWlLk6GJQsqaUBKTNV-1">
          <mxGeometry x="330" y="1160" width="250" height="150" as="geometry" />
        </mxCell>
        <mxCell id="iNXzVMeMWfwk78cKGa2O-140" value="&lt;font style=&quot;font-size: 14px;&quot;&gt;-myCarre: Carre&lt;br&gt;-Sprite: string&lt;/font&gt;" style="text;whiteSpace=wrap;html=1;" vertex="1" parent="iNXzVMeMWfwk78cKGa2O-128">
          <mxGeometry y="26" width="250" height="50" as="geometry" />
        </mxCell>
        <mxCell id="iNXzVMeMWfwk78cKGa2O-130" value="" style="line;strokeWidth=1;fillColor=none;align=left;verticalAlign=middle;spacingTop=-1;spacingLeft=3;spacingRight=3;rotatable=0;labelPosition=right;points=[];portConstraint=eastwest;strokeColor=inherit;" vertex="1" parent="iNXzVMeMWfwk78cKGa2O-128">
          <mxGeometry y="76" width="250" height="8" as="geometry" />
        </mxCell>
        <mxCell id="iNXzVMeMWfwk78cKGa2O-141" value="&lt;font style=&quot;font-size: 14px;&quot;&gt;+ServeMeal(clients: ClientGroup): void&lt;br&gt;+ClearMeal(clients: ClientGroup): void&lt;br&gt;+AddOnTable(table: Table): void&lt;/font&gt;" style="text;whiteSpace=wrap;html=1;" vertex="1" parent="iNXzVMeMWfwk78cKGa2O-128">
          <mxGeometry y="84" width="250" height="66" as="geometry" />
        </mxCell>
        <mxCell id="iNXzVMeMWfwk78cKGa2O-132" value="&lt;font style=&quot;font-size: 14px;&quot;&gt;Staff&lt;/font&gt;" style="swimlane;fontStyle=1;align=center;verticalAlign=top;childLayout=stackLayout;horizontal=1;startSize=26;horizontalStack=0;resizeParent=1;resizeParentMax=0;resizeLast=0;collapsible=1;marginBottom=0;whiteSpace=wrap;html=1;strokeColor=#FFFFFF;" vertex="1" parent="WIyWlLk6GJQsqaUBKTNV-1">
          <mxGeometry x="530" y="920" width="190" height="210" as="geometry" />
        </mxCell>
        <mxCell id="iNXzVMeMWfwk78cKGa2O-137" value="&lt;font style=&quot;font-size: 14px;&quot;&gt;-Name: string&lt;br&gt;-Id : int&lt;br&gt;-Pos: Position&lt;br&gt;-MoveBehaviour : IMovable&lt;br&gt;-Available : boolean&lt;br&gt;-Type: StaffType&lt;/font&gt;" style="text;whiteSpace=wrap;html=1;" vertex="1" parent="iNXzVMeMWfwk78cKGa2O-132">
          <mxGeometry y="26" width="190" height="144" as="geometry" />
        </mxCell>
        <mxCell id="iNXzVMeMWfwk78cKGa2O-134" value="" style="line;strokeWidth=1;fillColor=none;align=left;verticalAlign=middle;spacingTop=-1;spacingLeft=3;spacingRight=3;rotatable=0;labelPosition=right;points=[];portConstraint=eastwest;strokeColor=inherit;" vertex="1" parent="iNXzVMeMWfwk78cKGa2O-132">
          <mxGeometry y="170" width="190" height="8" as="geometry" />
        </mxCell>
        <mxCell id="iNXzVMeMWfwk78cKGa2O-138" value="&lt;font style=&quot;font-size: 14px;&quot;&gt;+MoveTo(pos : Position)&lt;/font&gt;" style="text;whiteSpace=wrap;html=1;" vertex="1" parent="iNXzVMeMWfwk78cKGa2O-132">
          <mxGeometry y="178" width="190" height="32" as="geometry" />
        </mxCell>
        <mxCell id="iNXzVMeMWfwk78cKGa2O-146" value="StaffManager" style="swimlane;fontStyle=1;align=center;verticalAlign=top;childLayout=stackLayout;horizontal=1;startSize=26;horizontalStack=0;resizeParent=1;resizeParentMax=0;resizeLast=0;collapsible=1;marginBottom=0;whiteSpace=wrap;html=1;strokeColor=#FFFFFF;" vertex="1" parent="WIyWlLk6GJQsqaUBKTNV-1">
          <mxGeometry x="860" y="710" width="290" height="210" as="geometry" />
        </mxCell>
        <mxCell id="iNXzVMeMWfwk78cKGa2O-150" value="&lt;font style=&quot;font-size: 14px;&quot;&gt;-RankChiefs :RankChief[]&lt;br&gt;-Master : RoomMaster&lt;br&gt;-Servers : Server[]&lt;/font&gt;" style="text;whiteSpace=wrap;html=1;" vertex="1" parent="iNXzVMeMWfwk78cKGa2O-146">
          <mxGeometry y="26" width="290" height="66" as="geometry" />
        </mxCell>
        <mxCell id="iNXzVMeMWfwk78cKGa2O-148" value="" style="line;strokeWidth=1;fillColor=none;align=left;verticalAlign=middle;spacingTop=-1;spacingLeft=3;spacingRight=3;rotatable=0;labelPosition=right;points=[];portConstraint=eastwest;strokeColor=inherit;" vertex="1" parent="iNXzVMeMWfwk78cKGa2O-146">
          <mxGeometry y="92" width="290" height="8" as="geometry" />
        </mxCell>
        <mxCell id="iNXzVMeMWfwk78cKGa2O-151" value="&lt;font style=&quot;font-size: 14px;&quot;&gt;ReadyToOrder(clients : ClientGroup) : void&lt;br&gt;DishTerminated(clients : ClientGroup) : void&lt;br&gt;Payment(clients : ClientGroup) : void&lt;/font&gt;" style="text;whiteSpace=wrap;html=1;" vertex="1" parent="iNXzVMeMWfwk78cKGa2O-146">
          <mxGeometry y="100" width="290" height="110" as="geometry" />
        </mxCell>
        <mxCell id="iNXzVMeMWfwk78cKGa2O-155" value="&lt;p style=&quot;margin:0px;margin-top:4px;text-align:center;&quot;&gt;&lt;i&gt;&amp;lt;&amp;lt;Interface&amp;gt;&amp;gt;&lt;/i&gt;&lt;br&gt;&lt;b&gt;IMovable&lt;/b&gt;&lt;/p&gt;&lt;hr size=&quot;1&quot; style=&quot;border-style:solid;&quot;&gt;&lt;p style=&quot;margin:0px;margin-left:4px;&quot;&gt;&lt;br&gt;&lt;/p&gt;" style="verticalAlign=top;align=left;overflow=fill;html=1;whiteSpace=wrap;strokeColor=#FFFFFF;" vertex="1" parent="WIyWlLk6GJQsqaUBKTNV-1">
          <mxGeometry x="891" y="965" width="190" height="95" as="geometry" />
        </mxCell>
        <mxCell id="iNXzVMeMWfwk78cKGa2O-156" value="&lt;font style=&quot;font-size: 14px;&quot;&gt;+MoveTo(pos : Position)&lt;/font&gt;" style="text;whiteSpace=wrap;html=1;" vertex="1" parent="WIyWlLk6GJQsqaUBKTNV-1">
          <mxGeometry x="900" y="1010" width="160" height="40" as="geometry" />
        </mxCell>
        <mxCell id="iNXzVMeMWfwk78cKGa2O-157" value="Teleport" style="swimlane;fontStyle=1;align=center;verticalAlign=top;childLayout=stackLayout;horizontal=1;startSize=26;horizontalStack=0;resizeParent=1;resizeParentMax=0;resizeLast=0;collapsible=1;marginBottom=0;whiteSpace=wrap;html=1;strokeColor=#FFFFFF;" vertex="1" parent="WIyWlLk6GJQsqaUBKTNV-1">
          <mxGeometry x="830" y="1164.5" width="160" height="55.5" as="geometry" />
        </mxCell>
        <mxCell id="iNXzVMeMWfwk78cKGa2O-161" value="Walk" style="swimlane;fontStyle=1;align=center;verticalAlign=top;childLayout=stackLayout;horizontal=1;startSize=26;horizontalStack=0;resizeParent=1;resizeParentMax=0;resizeLast=0;collapsible=1;marginBottom=0;whiteSpace=wrap;html=1;strokeColor=#FFFFFF;" vertex="1" parent="WIyWlLk6GJQsqaUBKTNV-1">
          <mxGeometry x="1030" y="1164.5" width="160" height="55.5" as="geometry" />
        </mxCell>
        <mxCell id="iNXzVMeMWfwk78cKGa2O-162" value="&lt;font style=&quot;font-size: 14px;&quot;&gt;Restaurant&lt;/font&gt;" style="swimlane;fontStyle=1;align=center;verticalAlign=top;childLayout=stackLayout;horizontal=1;startSize=26;horizontalStack=0;resizeParent=1;resizeParentMax=0;resizeLast=0;collapsible=1;marginBottom=0;whiteSpace=wrap;html=1;strokeColor=#FFFFFF;" vertex="1" parent="WIyWlLk6GJQsqaUBKTNV-1">
          <mxGeometry x="1230" y="940" width="260" height="120" as="geometry" />
        </mxCell>
        <mxCell id="iNXzVMeMWfwk78cKGa2O-167" value="&lt;div&gt;&lt;font style=&quot;font-size: 14px;&quot;&gt;+Restaurant()&lt;/font&gt;&lt;/div&gt;&lt;font style=&quot;font-size: 14px;&quot;&gt;+CreateStaff() : void&lt;br&gt;+CreateClients() : void&lt;br&gt;+ApplyConfig(Config : IController) : void&lt;/font&gt;" style="text;whiteSpace=wrap;html=1;" vertex="1" parent="iNXzVMeMWfwk78cKGa2O-162">
          <mxGeometry y="26" width="260" height="94" as="geometry" />
        </mxCell>
        <mxCell id="iNXzVMeMWfwk78cKGa2O-168" value="&lt;font style=&quot;font-size: 14px;&quot;&gt;ClientGroup&lt;/font&gt;" style="swimlane;fontStyle=1;align=center;verticalAlign=top;childLayout=stackLayout;horizontal=1;startSize=26;horizontalStack=0;resizeParent=1;resizeParentMax=0;resizeLast=0;collapsible=1;marginBottom=0;whiteSpace=wrap;html=1;strokeColor=#FFFFFF;" vertex="1" parent="WIyWlLk6GJQsqaUBKTNV-1">
          <mxGeometry x="1310" y="1148" width="230" height="296" as="geometry" />
        </mxCell>
        <mxCell id="iNXzVMeMWfwk78cKGa2O-174" value="&lt;font style=&quot;font-size: 14px;&quot;&gt;-Id :&amp;nbsp; int&lt;br&gt;-ClientList : Client[]&lt;br&gt;-TableSit : Table&lt;br&gt;-Reserved : boolean&lt;br&gt;-IsHurry : boolean&lt;br&gt;-ReadyToOrder : Event&lt;br&gt;-DishTerminated : Event&lt;br&gt;-ReadyToPay : Event&lt;br&gt;-Sprite : string&lt;/font&gt;" style="text;whiteSpace=wrap;html=1;" vertex="1" parent="iNXzVMeMWfwk78cKGa2O-168">
          <mxGeometry y="26" width="230" height="212" as="geometry" />
        </mxCell>
        <mxCell id="iNXzVMeMWfwk78cKGa2O-170" value="" style="line;strokeWidth=1;fillColor=none;align=left;verticalAlign=middle;spacingTop=-1;spacingLeft=3;spacingRight=3;rotatable=0;labelPosition=right;points=[];portConstraint=eastwest;strokeColor=inherit;" vertex="1" parent="iNXzVMeMWfwk78cKGa2O-168">
          <mxGeometry y="238" width="230" height="8" as="geometry" />
        </mxCell>
        <mxCell id="iNXzVMeMWfwk78cKGa2O-175" value="&lt;font style=&quot;font-size: 14px;&quot;&gt;+MoveTo(pos : Position)&lt;br&gt;+Run() : Thread&lt;/font&gt;" style="text;whiteSpace=wrap;html=1;" vertex="1" parent="iNXzVMeMWfwk78cKGa2O-168">
          <mxGeometry y="246" width="230" height="50" as="geometry" />
        </mxCell>
        <mxCell id="iNXzVMeMWfwk78cKGa2O-176" value="&lt;font style=&quot;font-size: 14px;&quot;&gt;ClientPool&lt;/font&gt;" style="swimlane;fontStyle=1;align=center;verticalAlign=top;childLayout=stackLayout;horizontal=1;startSize=26;horizontalStack=0;resizeParent=1;resizeParentMax=0;resizeLast=0;collapsible=1;marginBottom=0;whiteSpace=wrap;html=1;strokeColor=#FFFFFF;" vertex="1" parent="WIyWlLk6GJQsqaUBKTNV-1">
          <mxGeometry x="1620" y="880" width="230" height="140" as="geometry" />
        </mxCell>
        <mxCell id="iNXzVMeMWfwk78cKGa2O-177" value="&lt;font style=&quot;font-size: 14px;&quot;&gt;-PoolGroup : TreadPool&lt;/font&gt;" style="text;strokeColor=none;fillColor=none;align=left;verticalAlign=top;spacingLeft=4;spacingRight=4;overflow=hidden;rotatable=0;points=[[0,0.5],[1,0.5]];portConstraint=eastwest;whiteSpace=wrap;html=1;" vertex="1" parent="iNXzVMeMWfwk78cKGa2O-176">
          <mxGeometry y="26" width="230" height="26" as="geometry" />
        </mxCell>
        <mxCell id="iNXzVMeMWfwk78cKGa2O-178" value="" style="line;strokeWidth=1;fillColor=none;align=left;verticalAlign=middle;spacingTop=-1;spacingLeft=3;spacingRight=3;rotatable=0;labelPosition=right;points=[];portConstraint=eastwest;strokeColor=inherit;" vertex="1" parent="iNXzVMeMWfwk78cKGa2O-176">
          <mxGeometry y="52" width="230" height="8" as="geometry" />
        </mxCell>
        <mxCell id="iNXzVMeMWfwk78cKGa2O-180" value="&lt;font style=&quot;font-size: 14px;&quot;&gt;-GenerateClients(nb : int) : Client[]&lt;br&gt;-GenerateGroup(clients : Client[])&lt;/font&gt;" style="text;whiteSpace=wrap;html=1;" vertex="1" parent="iNXzVMeMWfwk78cKGa2O-176">
          <mxGeometry y="60" width="230" height="80" as="geometry" />
        </mxCell>
        <mxCell id="iNXzVMeMWfwk78cKGa2O-182" value="&lt;p style=&quot;margin:0px;margin-top:4px;text-align:center;&quot;&gt;&lt;font style=&quot;font-size: 14px;&quot;&gt;&lt;i&gt;&amp;lt;&amp;lt;Singleton&amp;gt;&amp;gt;&lt;/i&gt;&lt;br&gt;&lt;b&gt;LogWriter&lt;/b&gt;&lt;/font&gt;&lt;/p&gt;&lt;hr size=&quot;1&quot; style=&quot;border-style:solid;&quot;&gt;&lt;p style=&quot;margin:0px;margin-left:4px;&quot;&gt;&lt;font size=&quot;3&quot;&gt;&lt;br&gt;-Insatnce: LogWriter&lt;/font&gt;&lt;/p&gt;&lt;hr size=&quot;1&quot; style=&quot;border-style:solid;&quot;&gt;&lt;p style=&quot;margin:0px;margin-left:4px;&quot;&gt;&lt;font size=&quot;3&quot;&gt;+Logwriter()&lt;br&gt;+GetInstance: LogWriter()&lt;/font&gt;&lt;/p&gt;&lt;p style=&quot;margin:0px;margin-left:4px;&quot;&gt;&lt;font size=&quot;3&quot;&gt;+WriteLog() : void&lt;/font&gt;&lt;/p&gt;" style="verticalAlign=top;align=left;overflow=fill;html=1;whiteSpace=wrap;strokeColor=#FFFFFF;" vertex="1" parent="WIyWlLk6GJQsqaUBKTNV-1">
          <mxGeometry x="1620" y="633" width="190" height="167" as="geometry" />
        </mxCell>
        <mxCell id="iNXzVMeMWfwk78cKGa2O-183" value="&lt;font style=&quot;font-size: 14px;&quot;&gt;Logfile&lt;/font&gt;" style="shape=note;whiteSpace=wrap;html=1;backgroundOutline=1;darkOpacity=0.05;strokeColor=#FFFFFF;" vertex="1" parent="WIyWlLk6GJQsqaUBKTNV-1">
          <mxGeometry x="1420" y="666.5" width="80" height="100" as="geometry" />
        </mxCell>
        <mxCell id="iNXzVMeMWfwk78cKGa2O-184" value="&lt;font style=&quot;font-size: 14px;&quot;&gt;Client&lt;/font&gt;" style="swimlane;fontStyle=1;align=center;verticalAlign=top;childLayout=stackLayout;horizontal=1;startSize=26;horizontalStack=0;resizeParent=1;resizeParentMax=0;resizeLast=0;collapsible=1;marginBottom=0;whiteSpace=wrap;html=1;strokeColor=#FFFFFF;" vertex="1" parent="WIyWlLk6GJQsqaUBKTNV-1">
          <mxGeometry x="1317.5" y="1590" width="215" height="160" as="geometry" />
        </mxCell>
        <mxCell id="iNXzVMeMWfwk78cKGa2O-185" value="&lt;font style=&quot;font-size: 14px;&quot;&gt;-Order: string[3]&lt;/font&gt;&lt;div&gt;&lt;font size=&quot;3&quot;&gt;-Served : boolean&lt;/font&gt;&lt;/div&gt;&lt;div&gt;&lt;font size=&quot;3&quot;&gt;-OrderMethod: OrderBehaviour&lt;/font&gt;&lt;/div&gt;" style="text;strokeColor=none;fillColor=none;align=left;verticalAlign=top;spacingLeft=4;spacingRight=4;overflow=hidden;rotatable=0;points=[[0,0.5],[1,0.5]];portConstraint=eastwest;whiteSpace=wrap;html=1;" vertex="1" parent="iNXzVMeMWfwk78cKGa2O-184">
          <mxGeometry y="26" width="215" height="94" as="geometry" />
        </mxCell>
        <mxCell id="iNXzVMeMWfwk78cKGa2O-186" value="" style="line;strokeWidth=1;fillColor=none;align=left;verticalAlign=middle;spacingTop=-1;spacingLeft=3;spacingRight=3;rotatable=0;labelPosition=right;points=[];portConstraint=eastwest;strokeColor=inherit;" vertex="1" parent="iNXzVMeMWfwk78cKGa2O-184">
          <mxGeometry y="120" width="215" height="8" as="geometry" />
        </mxCell>
        <mxCell id="iNXzVMeMWfwk78cKGa2O-187" value="&lt;font style=&quot;font-size: 14px;&quot;&gt;+OrderMeal: void&lt;/font&gt;" style="text;strokeColor=none;fillColor=none;align=left;verticalAlign=top;spacingLeft=4;spacingRight=4;overflow=hidden;rotatable=0;points=[[0,0.5],[1,0.5]];portConstraint=eastwest;whiteSpace=wrap;html=1;" vertex="1" parent="iNXzVMeMWfwk78cKGa2O-184">
          <mxGeometry y="128" width="215" height="32" as="geometry" />
        </mxCell>
        <mxCell id="iNXzVMeMWfwk78cKGa2O-189" value="&lt;p style=&quot;margin:0px;margin-top:4px;text-align:center;&quot;&gt;&lt;font style=&quot;font-size: 14px;&quot;&gt;&lt;i&gt;&amp;lt;&amp;lt;Interface&amp;gt;&amp;gt;&lt;/i&gt;&lt;br&gt;&lt;b&gt;OrderBehaviour&lt;/b&gt;&lt;/font&gt;&lt;/p&gt;&lt;hr size=&quot;1&quot; style=&quot;border-style:solid;&quot;&gt;&lt;p style=&quot;margin:0px;margin-left:4px;&quot;&gt;&lt;font size=&quot;3&quot;&gt;+OrderMeal(Client : Client, server : RankChief) : void&lt;br&gt;&lt;/font&gt;&lt;/p&gt;&lt;p style=&quot;margin:0px;margin-left:4px;&quot;&gt;&lt;font size=&quot;3&quot;&gt;&lt;br&gt;&lt;/font&gt;&lt;br&gt;&lt;/p&gt;" style="verticalAlign=top;align=left;overflow=fill;html=1;whiteSpace=wrap;" vertex="1" parent="WIyWlLk6GJQsqaUBKTNV-1">
          <mxGeometry x="1710" y="1550" width="380" height="90" as="geometry" />
        </mxCell>
        <mxCell id="iNXzVMeMWfwk78cKGa2O-190" value="&lt;font style=&quot;font-size: 14px;&quot;&gt;OrderAllOne&lt;/font&gt;" style="swimlane;fontStyle=1;align=center;verticalAlign=top;childLayout=stackLayout;horizontal=1;startSize=26;horizontalStack=0;resizeParent=1;resizeParentMax=0;resizeLast=0;collapsible=1;marginBottom=0;whiteSpace=wrap;html=1;" vertex="1" parent="WIyWlLk6GJQsqaUBKTNV-1">
          <mxGeometry x="1720" y="1710" width="160" height="52" as="geometry" />
        </mxCell>
        <mxCell id="iNXzVMeMWfwk78cKGa2O-194" value="&lt;font style=&quot;font-size: 14px;&quot;&gt;OrderTwoStep&lt;/font&gt;" style="swimlane;fontStyle=1;align=center;verticalAlign=top;childLayout=stackLayout;horizontal=1;startSize=26;horizontalStack=0;resizeParent=1;resizeParentMax=0;resizeLast=0;collapsible=1;marginBottom=0;whiteSpace=wrap;html=1;" vertex="1" parent="WIyWlLk6GJQsqaUBKTNV-1">
          <mxGeometry x="1920" y="1710" width="160" height="52" as="geometry" />
        </mxCell>
        <mxCell id="iNXzVMeMWfwk78cKGa2O-195" value="" style="endArrow=block;endSize=16;endFill=0;html=1;rounded=0;entryX=0.343;entryY=1.108;entryDx=0;entryDy=0;entryPerimeter=0;" edge="1" parent="WIyWlLk6GJQsqaUBKTNV-1" target="iNXzVMeMWfwk78cKGa2O-105">
          <mxGeometry width="160" relative="1" as="geometry">
            <mxPoint x="110" y="818.1800000000001" as="sourcePoint" />
            <mxPoint x="270" y="818.1800000000001" as="targetPoint" />
          </mxGeometry>
        </mxCell>
        <mxCell id="iNXzVMeMWfwk78cKGa2O-196" value="" style="endArrow=block;endSize=16;endFill=0;html=1;rounded=0;entryX=0.797;entryY=1.178;entryDx=0;entryDy=0;entryPerimeter=0;" edge="1" parent="WIyWlLk6GJQsqaUBKTNV-1" target="iNXzVMeMWfwk78cKGa2O-105">
          <mxGeometry width="160" relative="1" as="geometry">
            <mxPoint x="254" y="820.0000000000001" as="sourcePoint" />
            <mxPoint x="309" y="730.82" as="targetPoint" />
          </mxGeometry>
        </mxCell>
        <mxCell id="iNXzVMeMWfwk78cKGa2O-197" value="" style="endArrow=block;endSize=16;endFill=0;html=1;rounded=0;entryX=1;entryY=0.5;entryDx=0;entryDy=0;" edge="1" parent="WIyWlLk6GJQsqaUBKTNV-1" target="iNXzVMeMWfwk78cKGa2O-105">
          <mxGeometry width="160" relative="1" as="geometry">
            <mxPoint x="420" y="730" as="sourcePoint" />
            <mxPoint x="475" y="640.8199999999999" as="targetPoint" />
          </mxGeometry>
        </mxCell>
        <mxCell id="iNXzVMeMWfwk78cKGa2O-198" value="&lt;font style=&quot;font-size: 14px;&quot;&gt;&amp;lt;&amp;lt;instantiate&amp;gt;&amp;gt;&lt;/font&gt;" style="endArrow=open;endSize=12;dashed=1;html=1;rounded=0;exitX=0;exitY=1;exitDx=0;exitDy=0;entryX=0.5;entryY=0;entryDx=0;entryDy=0;" edge="1" parent="WIyWlLk6GJQsqaUBKTNV-1" source="iNXzVMeMWfwk78cKGa2O-108" target="iNXzVMeMWfwk78cKGa2O-120">
          <mxGeometry width="160" relative="1" as="geometry">
            <mxPoint x="30" y="890" as="sourcePoint" />
            <mxPoint x="190" y="890" as="targetPoint" />
          </mxGeometry>
        </mxCell>
        <mxCell id="iNXzVMeMWfwk78cKGa2O-200" value="&lt;font style=&quot;font-size: 14px;&quot;&gt;&amp;lt;&amp;lt;instantiate&amp;gt;&amp;gt;&lt;/font&gt;" style="endArrow=open;endSize=12;dashed=1;html=1;rounded=0;exitX=0;exitY=1;exitDx=0;exitDy=0;entryX=0.5;entryY=0;entryDx=0;entryDy=0;" edge="1" parent="WIyWlLk6GJQsqaUBKTNV-1" target="iNXzVMeMWfwk78cKGa2O-124">
          <mxGeometry width="160" relative="1" as="geometry">
            <mxPoint x="295" y="872" as="sourcePoint" />
            <mxPoint x="180" y="994" as="targetPoint" />
          </mxGeometry>
        </mxCell>
        <mxCell id="iNXzVMeMWfwk78cKGa2O-205" value="&lt;font style=&quot;font-size: 14px;&quot;&gt;&amp;lt;&amp;lt;instantiate&amp;gt;&amp;gt;&lt;/font&gt;" style="endArrow=open;endSize=12;dashed=1;html=1;rounded=0;exitX=0.75;exitY=1;exitDx=0;exitDy=0;" edge="1" parent="WIyWlLk6GJQsqaUBKTNV-1" source="iNXzVMeMWfwk78cKGa2O-116" target="iNXzVMeMWfwk78cKGa2O-128">
          <mxGeometry width="160" relative="1" as="geometry">
            <mxPoint x="305" y="882" as="sourcePoint" />
            <mxPoint x="155" y="1190" as="targetPoint" />
          </mxGeometry>
        </mxCell>
        <mxCell id="iNXzVMeMWfwk78cKGa2O-206" value="&lt;font style=&quot;font-size: 14px;&quot;&gt;Use&lt;/font&gt;" style="endArrow=open;endSize=12;dashed=1;html=1;rounded=0;entryX=1;entryY=0.5;entryDx=0;entryDy=0;exitX=0;exitY=0.25;exitDx=0;exitDy=0;" edge="1" parent="WIyWlLk6GJQsqaUBKTNV-1" source="iNXzVMeMWfwk78cKGa2O-150" target="iNXzVMeMWfwk78cKGa2O-116">
          <mxGeometry width="160" relative="1" as="geometry">
            <mxPoint x="640" y="750" as="sourcePoint" />
            <mxPoint x="800" y="750" as="targetPoint" />
          </mxGeometry>
        </mxCell>
        <mxCell id="iNXzVMeMWfwk78cKGa2O-207" value="&lt;font style=&quot;font-size: 14px;&quot;&gt;Use&lt;/font&gt;" style="endArrow=open;endSize=12;dashed=1;html=1;rounded=0;" edge="1" parent="WIyWlLk6GJQsqaUBKTNV-1">
          <mxGeometry width="160" relative="1" as="geometry">
            <mxPoint x="720" y="1029.09" as="sourcePoint" />
            <mxPoint x="890" y="1029" as="targetPoint" />
          </mxGeometry>
        </mxCell>
        <mxCell id="iNXzVMeMWfwk78cKGa2O-208" value="&lt;font style=&quot;font-size: 14px;&quot;&gt;Use&lt;/font&gt;" style="endArrow=open;endSize=12;dashed=1;html=1;rounded=0;entryX=1;entryY=0.75;entryDx=0;entryDy=0;exitX=0;exitY=0.75;exitDx=0;exitDy=0;" edge="1" parent="WIyWlLk6GJQsqaUBKTNV-1" source="iNXzVMeMWfwk78cKGa2O-167" target="iNXzVMeMWfwk78cKGa2O-155">
          <mxGeometry width="160" relative="1" as="geometry">
            <mxPoint x="1100" y="1100" as="sourcePoint" />
            <mxPoint x="1260" y="1100" as="targetPoint" />
          </mxGeometry>
        </mxCell>
        <mxCell id="iNXzVMeMWfwk78cKGa2O-213" value="" style="endArrow=diamondThin;endFill=0;endSize=24;html=1;rounded=0;entryX=0.432;entryY=1.005;entryDx=0;entryDy=0;entryPerimeter=0;" edge="1" parent="WIyWlLk6GJQsqaUBKTNV-1" target="iNXzVMeMWfwk78cKGa2O-175">
          <mxGeometry width="160" relative="1" as="geometry">
            <mxPoint x="1410" y="1588.18" as="sourcePoint" />
            <mxPoint x="1570" y="1588.18" as="targetPoint" />
          </mxGeometry>
        </mxCell>
        <mxCell id="iNXzVMeMWfwk78cKGa2O-215" value="" style="endArrow=diamondThin;endFill=0;endSize=24;html=1;rounded=0;entryX=-0.002;entryY=0.149;entryDx=0;entryDy=0;entryPerimeter=0;" edge="1" parent="WIyWlLk6GJQsqaUBKTNV-1" target="iNXzVMeMWfwk78cKGa2O-162">
          <mxGeometry width="160" relative="1" as="geometry">
            <mxPoint x="1150" y="910" as="sourcePoint" />
            <mxPoint x="1310" y="910" as="targetPoint" />
          </mxGeometry>
        </mxCell>
        <mxCell id="iNXzVMeMWfwk78cKGa2O-216" value="" style="endArrow=diamondThin;endFill=0;endSize=24;html=1;rounded=0;entryX=-0.019;entryY=-0.171;entryDx=0;entryDy=0;entryPerimeter=0;exitX=1;exitY=0.75;exitDx=0;exitDy=0;" edge="1" parent="WIyWlLk6GJQsqaUBKTNV-1" source="iNXzVMeMWfwk78cKGa2O-151" target="iNXzVMeMWfwk78cKGa2O-177">
          <mxGeometry width="160" relative="1" as="geometry">
            <mxPoint x="1160" y="890" as="sourcePoint" />
            <mxPoint x="1320" y="890" as="targetPoint" />
          </mxGeometry>
        </mxCell>
        <mxCell id="iNXzVMeMWfwk78cKGa2O-219" value="&lt;font style=&quot;font-size: 14px;&quot;&gt;&amp;lt;&amp;lt;instantiate&amp;gt;&amp;gt;&lt;/font&gt;" style="endArrow=open;endSize=12;dashed=1;html=1;rounded=0;exitX=0.072;exitY=1.019;exitDx=0;exitDy=0;entryX=1;entryY=0;entryDx=0;entryDy=0;exitPerimeter=0;" edge="1" parent="WIyWlLk6GJQsqaUBKTNV-1" source="iNXzVMeMWfwk78cKGa2O-180" target="iNXzVMeMWfwk78cKGa2O-184">
          <mxGeometry width="160" relative="1" as="geometry">
            <mxPoint x="1630.5" y="1010" as="sourcePoint" />
            <mxPoint x="1609.5" y="1390" as="targetPoint" />
          </mxGeometry>
        </mxCell>
        <mxCell id="iNXzVMeMWfwk78cKGa2O-220" value="&lt;font style=&quot;font-size: 14px;&quot;&gt;&amp;lt;&amp;lt;instantiate&amp;gt;&amp;gt;&lt;/font&gt;" style="endArrow=open;endSize=12;dashed=1;html=1;rounded=0;exitX=0.75;exitY=1;exitDx=0;exitDy=0;entryX=0.887;entryY=0.003;entryDx=0;entryDy=0;entryPerimeter=0;" edge="1" parent="WIyWlLk6GJQsqaUBKTNV-1" target="iNXzVMeMWfwk78cKGa2O-168">
          <mxGeometry width="160" relative="1" as="geometry">
            <mxPoint x="1620" y="950" as="sourcePoint" />
            <mxPoint x="1599" y="1330" as="targetPoint" />
          </mxGeometry>
        </mxCell>
        <mxCell id="iNXzVMeMWfwk78cKGa2O-221" value="Use" style="endArrow=open;endSize=12;dashed=1;html=1;rounded=0;entryX=0;entryY=0.75;entryDx=0;entryDy=0;" edge="1" parent="WIyWlLk6GJQsqaUBKTNV-1" target="iNXzVMeMWfwk78cKGa2O-189">
          <mxGeometry width="160" relative="1" as="geometry">
            <mxPoint x="1540" y="1620" as="sourcePoint" />
            <mxPoint x="1700" y="1620" as="targetPoint" />
          </mxGeometry>
        </mxCell>
        <mxCell id="iNXzVMeMWfwk78cKGa2O-224" value="" style="endArrow=none;dashed=1;html=1;dashPattern=1 3;strokeWidth=2;rounded=0;entryX=0.787;entryY=0.096;entryDx=0;entryDy=0;entryPerimeter=0;" edge="1" parent="WIyWlLk6GJQsqaUBKTNV-1" target="iNXzVMeMWfwk78cKGa2O-102">
          <mxGeometry width="50" height="50" relative="1" as="geometry">
            <mxPoint x="1510" y="730" as="sourcePoint" />
            <mxPoint x="1550" y="670" as="targetPoint" />
          </mxGeometry>
        </mxCell>
        <mxCell id="iNXzVMeMWfwk78cKGa2O-229" value="" style="endArrow=none;html=1;rounded=0;entryX=0.321;entryY=1.081;entryDx=0;entryDy=0;entryPerimeter=0;" edge="1" parent="WIyWlLk6GJQsqaUBKTNV-1" target="iNXzVMeMWfwk78cKGa2O-172">
          <mxGeometry width="50" height="50" relative="1" as="geometry">
            <mxPoint x="-113" y="1640" as="sourcePoint" />
            <mxPoint x="-80" y="1270" as="targetPoint" />
          </mxGeometry>
        </mxCell>
        <mxCell id="iNXzVMeMWfwk78cKGa2O-230" value="" style="endArrow=none;html=1;rounded=0;" edge="1" parent="WIyWlLk6GJQsqaUBKTNV-1">
          <mxGeometry width="50" height="50" relative="1" as="geometry">
            <mxPoint x="-110" y="1640" as="sourcePoint" />
            <mxPoint x="700" y="1640" as="targetPoint" />
          </mxGeometry>
        </mxCell>
        <mxCell id="iNXzVMeMWfwk78cKGa2O-231" value="" style="endArrow=block;endSize=16;endFill=0;html=1;rounded=0;entryX=0.882;entryY=1.161;entryDx=0;entryDy=0;entryPerimeter=0;" edge="1" parent="WIyWlLk6GJQsqaUBKTNV-1" target="iNXzVMeMWfwk78cKGa2O-138">
          <mxGeometry width="160" relative="1" as="geometry">
            <mxPoint x="700" y="1640" as="sourcePoint" />
            <mxPoint x="705" y="1537.5" as="targetPoint" />
          </mxGeometry>
        </mxCell>
        <mxCell id="iNXzVMeMWfwk78cKGa2O-232" value="" style="endArrow=none;html=1;rounded=0;" edge="1" parent="WIyWlLk6GJQsqaUBKTNV-1">
          <mxGeometry width="50" height="50" relative="1" as="geometry">
            <mxPoint x="180" y="1490" as="sourcePoint" />
            <mxPoint x="180" y="1360" as="targetPoint" />
          </mxGeometry>
        </mxCell>
        <mxCell id="iNXzVMeMWfwk78cKGa2O-235" value="" style="endArrow=none;html=1;rounded=0;" edge="1" parent="WIyWlLk6GJQsqaUBKTNV-1">
          <mxGeometry width="50" height="50" relative="1" as="geometry">
            <mxPoint x="180" y="1490" as="sourcePoint" />
            <mxPoint x="660" y="1490" as="targetPoint" />
          </mxGeometry>
        </mxCell>
        <mxCell id="iNXzVMeMWfwk78cKGa2O-236" value="" style="endArrow=block;endSize=16;endFill=0;html=1;rounded=0;entryX=0.882;entryY=1.161;entryDx=0;entryDy=0;entryPerimeter=0;" edge="1" parent="WIyWlLk6GJQsqaUBKTNV-1">
          <mxGeometry width="160" relative="1" as="geometry">
            <mxPoint x="664" y="1490" as="sourcePoint" />
            <mxPoint x="663.75" y="1130" as="targetPoint" />
          </mxGeometry>
        </mxCell>
        <mxCell id="iNXzVMeMWfwk78cKGa2O-237" value="" style="endArrow=block;endSize=16;endFill=0;html=1;rounded=0;entryX=0.882;entryY=1.161;entryDx=0;entryDy=0;entryPerimeter=0;" edge="1" parent="WIyWlLk6GJQsqaUBKTNV-1">
          <mxGeometry width="160" relative="1" as="geometry">
            <mxPoint x="630" y="1240" as="sourcePoint" />
            <mxPoint x="630" y="1130" as="targetPoint" />
          </mxGeometry>
        </mxCell>
        <mxCell id="iNXzVMeMWfwk78cKGa2O-239" value="" style="endArrow=none;html=1;rounded=0;" edge="1" parent="WIyWlLk6GJQsqaUBKTNV-1">
          <mxGeometry width="50" height="50" relative="1" as="geometry">
            <mxPoint x="580" y="1240" as="sourcePoint" />
            <mxPoint x="630" y="1240" as="targetPoint" />
          </mxGeometry>
        </mxCell>
        <mxCell id="iNXzVMeMWfwk78cKGa2O-240" value="" style="endArrow=none;dashed=1;html=1;rounded=0;exitX=0.25;exitY=0;exitDx=0;exitDy=0;" edge="1" parent="WIyWlLk6GJQsqaUBKTNV-1" source="iNXzVMeMWfwk78cKGa2O-162">
          <mxGeometry width="50" height="50" relative="1" as="geometry">
            <mxPoint x="1310" y="840" as="sourcePoint" />
            <mxPoint x="1300" y="600" as="targetPoint" />
          </mxGeometry>
        </mxCell>
        <mxCell id="iNXzVMeMWfwk78cKGa2O-241" value="" style="endArrow=none;dashed=1;html=1;rounded=0;" edge="1" parent="WIyWlLk6GJQsqaUBKTNV-1">
          <mxGeometry width="50" height="50" relative="1" as="geometry">
            <mxPoint x="1300" y="600" as="sourcePoint" />
            <mxPoint x="1650" y="600" as="targetPoint" />
          </mxGeometry>
        </mxCell>
        <mxCell id="iNXzVMeMWfwk78cKGa2O-243" value="" style="endArrow=block;dashed=1;endFill=0;endSize=12;html=1;rounded=0;" edge="1" parent="WIyWlLk6GJQsqaUBKTNV-1">
          <mxGeometry width="160" relative="1" as="geometry">
            <mxPoint x="1650" y="600" as="sourcePoint" />
            <mxPoint x="1650" y="368" as="targetPoint" />
          </mxGeometry>
        </mxCell>
        <mxCell id="iNXzVMeMWfwk78cKGa2O-244" value="" style="endArrow=block;dashed=1;endFill=0;endSize=12;html=1;rounded=0;entryX=0.25;entryY=1;entryDx=0;entryDy=0;exitX=0.5;exitY=0;exitDx=0;exitDy=0;" edge="1" parent="WIyWlLk6GJQsqaUBKTNV-1" source="iNXzVMeMWfwk78cKGa2O-190" target="iNXzVMeMWfwk78cKGa2O-189">
          <mxGeometry width="160" relative="1" as="geometry">
            <mxPoint x="1990" y="1131" as="sourcePoint" />
            <mxPoint x="1990" y="1461" as="targetPoint" />
          </mxGeometry>
        </mxCell>
        <mxCell id="iNXzVMeMWfwk78cKGa2O-245" value="" style="endArrow=block;dashed=1;endFill=0;endSize=12;html=1;rounded=0;entryX=0.75;entryY=1;entryDx=0;entryDy=0;exitX=0.5;exitY=0;exitDx=0;exitDy=0;" edge="1" parent="WIyWlLk6GJQsqaUBKTNV-1" source="iNXzVMeMWfwk78cKGa2O-194" target="iNXzVMeMWfwk78cKGa2O-189">
          <mxGeometry width="160" relative="1" as="geometry">
            <mxPoint x="1980" y="960" as="sourcePoint" />
            <mxPoint x="1980" y="1290" as="targetPoint" />
          </mxGeometry>
        </mxCell>
        <mxCell id="iNXzVMeMWfwk78cKGa2O-246" value="" style="endArrow=block;dashed=1;endFill=0;endSize=12;html=1;rounded=0;entryX=0.25;entryY=1;entryDx=0;entryDy=0;exitX=0.5;exitY=0;exitDx=0;exitDy=0;" edge="1" parent="WIyWlLk6GJQsqaUBKTNV-1" source="iNXzVMeMWfwk78cKGa2O-157">
          <mxGeometry width="160" relative="1" as="geometry">
            <mxPoint x="920" y="1130" as="sourcePoint" />
            <mxPoint x="925" y="1060" as="targetPoint" />
          </mxGeometry>
        </mxCell>
        <mxCell id="iNXzVMeMWfwk78cKGa2O-247" value="" style="endArrow=block;dashed=1;endFill=0;endSize=12;html=1;rounded=0;entryX=0.25;entryY=1;entryDx=0;entryDy=0;exitX=0.25;exitY=0;exitDx=0;exitDy=0;" edge="1" parent="WIyWlLk6GJQsqaUBKTNV-1" source="iNXzVMeMWfwk78cKGa2O-161">
          <mxGeometry width="160" relative="1" as="geometry">
            <mxPoint x="1050" y="1130" as="sourcePoint" />
            <mxPoint x="1055" y="1060" as="targetPoint" />
          </mxGeometry>
        </mxCell>
      </root>
    </mxGraphModel>
  </diagram>
</mxfile>
